<svg width="138" height="116" viewBox="0 0 138 116" fill="none" xmlns="http://www.w3.org/2000/svg">
<g clip-path="url(#clip0_81_7661)">
<path d="M0 116L27.8579 63.8351H110.142L135.58 111.465L138 116H0ZM10.2563 109.838H127.744L106.469 69.9968H31.5306L10.2563 109.838Z" fill="#DDE1E6"/>
<path d="M96.1886 11.3005C81.1665 -3.77096 56.8215 -3.77096 41.8116 11.3005C26.8017 26.372 26.8017 50.797 41.8116 65.8562L69.0063 93.1401L96.2009 65.8562C111.223 50.7847 111.223 26.3597 96.2009 11.3005H96.1886ZM68.994 62.7876C54.6474 62.7876 43.0153 51.1174 43.0153 36.7237C43.0153 22.33 54.6474 10.6597 68.994 10.6597C83.3406 10.6597 94.9726 22.33 94.9726 36.7237C94.9726 51.1174 83.3406 62.7876 68.994 62.7876Z" fill="#DDE1E6"/>
<path d="M87.5657 23.5623L78.2797 39.6936L69.006 55.8249L59.7201 39.6936L50.4341 23.5623L69.006 33.7291L87.5657 23.5623Z" fill="#C1C7CD"/>
</g>
<defs>
<clipPath id="clip0_81_7661">
<rect width="138" height="116" fill="white"/>
</clipPath>
</defs>
</svg>
