<svg width="24" height="24" viewBox="0 0 24 24" fill="none" xmlns="http://www.w3.org/2000/svg">
  <path
    d="M13.3018 22.5L12 21.75L15 16.5H19.5C19.6971 16.5003 19.8923 16.4618 20.0744 16.3865C20.2566 16.3112 20.4221 16.2008 20.5614 16.0614C20.7008 15.9221 20.8112 15.7566 20.8865 15.5744C20.9618 15.3923 21.0003 15.1971 21 15V4.5C21.0003 4.30292 20.9618 4.10772 20.8865 3.92558C20.8112 3.74344 20.7008 3.57795 20.5614 3.43859C20.4221 3.29924 20.2566 3.18876 20.0744 3.1135C19.8923 3.03823 19.6971 2.99966 19.5 3H4.5C4.30292 2.99966 4.10772 3.03823 3.92558 3.1135C3.74344 3.18876 3.57795 3.29924 3.43859 3.43859C3.29924 3.57795 3.18876 3.74344 3.1135 3.92558C3.03823 4.10772 2.99966 4.30292 3 4.5V15C2.99966 15.1971 3.03823 15.3923 3.1135 15.5744C3.18876 15.7566 3.29924 15.9221 3.43859 16.0614C3.57795 16.2008 3.74344 16.3112 3.92558 16.3865C4.10772 16.4618 4.30292 16.5003 4.5 16.5H11.25V18H4.5C4.10601 18.0001 3.71588 17.9225 3.35187 17.7718C2.98786 17.621 2.65712 17.4001 2.37853 17.1215C2.09994 16.8429 1.87896 16.5121 1.72822 16.1481C1.57748 15.7841 1.49993 15.394 1.5 15V4.5C1.49988 4.106 1.5774 3.71584 1.72812 3.35181C1.87884 2.98778 2.09982 2.65702 2.37842 2.37842C2.65702 2.09982 2.98778 1.87884 3.35181 1.72812C3.71584 1.5774 4.106 1.49988 4.5 1.5H19.5C19.894 1.49988 20.2842 1.5774 20.6482 1.72812C21.0122 1.87884 21.343 2.09982 21.6216 2.37842C21.9002 2.65702 22.1212 2.98778 22.2719 3.35181C22.4226 3.71584 22.5001 4.106 22.5 4.5V15C22.5001 15.394 22.4225 15.7841 22.2718 16.1481C22.121 16.5121 21.9001 16.8429 21.6215 17.1215C21.3429 17.4001 21.0121 17.621 20.6481 17.7718C20.2841 17.9225 19.894 18.0001 19.5 18H15.8735L13.3018 22.5Z"
    fill="#343A3F" />
</svg>
  
