<svg width="78" height="55" viewBox="0 0 78 55" fill="none" xmlns="http://www.w3.org/2000/svg">
<path d="M56.3931 33.3354C55.8119 33.3331 55.2403 33.484 54.736 33.7729C54.4363 33.2896 54.0194 32.8898 53.5239 32.6107C53.0284 32.3316 52.4704 32.1823 51.9017 32.1765C51.3205 32.1742 50.7489 32.3252 50.2446 32.6141C49.8402 31.967 49.2284 31.476 48.5091 31.2213C47.7897 30.9667 47.0053 30.9633 46.2838 31.2117L46.3277 25.3844C46.3344 24.4893 45.9853 23.6282 45.3572 22.9905C44.729 22.3528 43.8733 21.9908 42.9782 21.9841C42.0831 21.9773 41.222 22.3264 40.5843 22.9546C39.9467 23.5827 39.5846 24.4385 39.5779 25.3336L39.4839 37.8207L36.9881 36.0919C36.4162 35.6592 35.7188 35.4249 35.0018 35.4244C34.3324 35.4177 33.6762 35.6102 33.1165 35.9774C32.5568 36.3447 32.119 36.87 31.8587 37.4868C31.5984 38.1035 31.5273 38.7837 31.6546 39.4409C31.7819 40.0981 32.1017 40.7026 32.5734 41.1775L41.5113 49.4575C42.7769 50.6075 44.4229 51.249 46.1329 51.2586L51.7577 51.301C53.8462 51.3167 55.8555 50.5021 57.3434 49.0364C58.8313 47.5708 59.6761 45.574 59.6918 43.4855L59.7426 36.7357C59.7493 35.8406 59.4002 34.9795 58.7721 34.3418C58.1439 33.7042 57.2882 33.3421 56.3931 33.3354ZM57.4418 43.4686C57.4306 44.9604 56.8272 46.3866 55.7644 47.4335C54.7016 48.4804 53.2665 49.0623 51.7747 49.0511L46.1498 49.0087C45.0126 49.0139 43.9122 48.6058 43.0534 47.8604L34.1717 39.5808C33.9655 39.3696 33.8504 39.086 33.8514 38.7908C33.853 38.5819 33.9127 38.3775 34.0239 38.2007C34.135 38.0238 34.2933 37.8813 34.4808 37.7893C34.6684 37.6973 34.8779 37.6593 35.0858 37.6796C35.2938 37.7 35.4919 37.7778 35.6581 37.9044L41.7016 42.1125L41.8278 25.3505C41.8301 25.0521 41.9507 24.7669 42.1633 24.5575C42.3759 24.3481 42.6629 24.2317 42.9613 24.234C43.2596 24.2362 43.5449 24.3569 43.7542 24.5695C43.9636 24.782 44.08 25.0691 44.0778 25.3674L43.9846 37.7421L46.2345 37.759L46.2599 34.3841C46.2622 34.0858 46.3829 33.8005 46.5954 33.5911C46.808 33.3817 47.095 33.2654 47.3934 33.2676C47.6917 33.2699 47.977 33.3905 48.1864 33.6031C48.3957 33.8157 48.5121 34.1027 48.5099 34.4011L48.4845 37.776L50.7344 37.7929L50.7513 35.543C50.7536 35.2446 50.8743 34.9594 51.0868 34.75C51.2994 34.5406 51.5864 34.4242 51.8848 34.4265C52.1831 34.4287 52.4684 34.5494 52.6778 34.762C52.8871 34.9745 53.0035 35.2615 53.0013 35.5599L52.9843 37.8098L55.2343 37.8268L55.2427 36.7018C55.245 36.4035 55.3657 36.1182 55.5782 35.9088C55.7908 35.6994 56.0778 35.5831 56.3762 35.5853C56.6745 35.5876 56.9598 35.7082 57.1692 35.9208C57.3785 36.1334 57.4949 36.4204 57.4927 36.7188L57.4418 43.4686Z" fill="white"/>
<path d="M62.7429 12.2714L65.7448 15.3875L43.0259 15.5439L43.0362 17.2917L65.7551 17.1353L62.7901 20.2866L64.0331 21.515L69.2455 16.2408L63.9713 11.0284L62.7429 12.2714Z" fill="white"/>
<rect x="5" y="6.5" width="34" height="20" rx="10" fill="#DEFBE6"/>
<path d="M12.5957 13.4297H14.0605V19.2891H17.1074V20.5H12.5957V13.4297ZM18.0254 15.1973H19.4707V20.5H18.0254V15.1973ZM18.748 14.5039C18.6048 14.5039 18.473 14.4714 18.3525 14.4062C18.2321 14.3379 18.1361 14.2484 18.0645 14.1377C17.9928 14.0238 17.957 13.9017 17.957 13.7715C17.957 13.638 17.9928 13.5143 18.0645 13.4004C18.1361 13.2865 18.2321 13.1969 18.3525 13.1318C18.473 13.0635 18.6048 13.0293 18.748 13.0293C18.888 13.0293 19.0182 13.0635 19.1387 13.1318C19.2591 13.1969 19.3535 13.2865 19.4219 13.4004C19.4935 13.5143 19.5293 13.638 19.5293 13.7715C19.5293 13.9017 19.4935 14.0238 19.4219 14.1377C19.3535 14.2484 19.2591 14.3379 19.1387 14.4062C19.0182 14.4714 18.888 14.5039 18.748 14.5039ZM20.5938 13.4297H22.0391V17.2285H22.1172L23.8359 15.1973H25.4961L23.5186 17.4922L25.6035 20.5H23.9043L22.4443 18.3418L22.0391 18.8008V20.5H20.5938V13.4297ZM28.3477 20.6074C27.8105 20.6074 27.3451 20.4967 26.9512 20.2754C26.5573 20.0508 26.2546 19.7334 26.043 19.3232C25.8346 18.9131 25.7305 18.4297 25.7305 17.873C25.7305 17.3327 25.8346 16.8558 26.043 16.4424C26.2546 16.0257 26.554 15.7035 26.9414 15.4756C27.3288 15.2445 27.778 15.1289 28.2891 15.1289C28.7643 15.1289 29.1891 15.2298 29.5635 15.4316C29.9411 15.6302 30.2373 15.9313 30.4521 16.335C30.6702 16.7386 30.7793 17.2318 30.7793 17.8145V18.2246H27.1562C27.1562 18.4883 27.2051 18.7178 27.3027 18.9131C27.4036 19.1084 27.5452 19.2598 27.7275 19.3672C27.9131 19.4714 28.1296 19.5234 28.377 19.5234C28.6178 19.5202 28.8245 19.4714 28.9971 19.377C29.1696 19.2793 29.2917 19.1491 29.3633 18.9863H30.7402C30.6719 19.3151 30.5319 19.6016 30.3203 19.8457C30.1087 20.0866 29.8337 20.2738 29.4951 20.4072C29.1598 20.5407 28.7773 20.6074 28.3477 20.6074ZM29.4121 17.3164C29.4121 17.1048 29.3649 16.9144 29.2705 16.7451C29.1794 16.5758 29.0508 16.4456 28.8848 16.3545C28.7188 16.2601 28.5299 16.2129 28.3184 16.2129C28.1035 16.2129 27.9082 16.2617 27.7324 16.3594C27.5599 16.457 27.4232 16.5905 27.3223 16.7598C27.2214 16.929 27.166 17.1146 27.1562 17.3164H29.4121Z" fill="#24A148"/>
</svg>
