<svg width="78" height="55" viewBox="0 0 78 55" fill="none" xmlns="http://www.w3.org/2000/svg">
<path d="M42.8932 33.3354C42.312 33.3331 41.7404 33.484 41.2361 33.7729C40.9364 33.2896 40.5195 32.8898 40.024 32.6107C39.5284 32.3316 38.9704 32.1823 38.4018 32.1765C37.8206 32.1742 37.249 32.3252 36.7447 32.6141C36.3402 31.967 35.7285 31.476 35.0091 31.2213C34.2898 30.9667 33.5054 30.9633 32.7839 31.2117L32.8278 25.3844C32.8345 24.4893 32.4854 23.6282 31.8572 22.9905C31.2291 22.3528 30.3733 21.9908 29.4783 21.9841C28.5832 21.9773 27.7221 22.3264 27.0844 22.9546C26.4467 23.5827 26.0847 24.4385 26.0779 25.3336L25.9839 37.8207L23.4881 36.0919C22.9163 35.6592 22.2189 35.4249 21.5018 35.4244C20.8325 35.4177 20.1762 35.6102 19.6166 35.9774C19.0569 36.3447 18.6191 36.87 18.3587 37.4868C18.0984 38.1035 18.0274 38.7837 18.1547 39.4409C18.2819 40.0981 18.6017 40.7026 19.0735 41.1775L28.0114 49.4575C29.2769 50.6075 30.923 51.249 32.6329 51.2586L38.2578 51.301C40.3463 51.3167 42.3555 50.5021 43.8435 49.0364C45.3314 47.5708 46.1761 45.574 46.1918 43.4855L46.2427 36.7357C46.2494 35.8406 45.9003 34.9795 45.2721 34.3418C44.644 33.7042 43.7883 33.3421 42.8932 33.3354ZM43.9419 43.4686C43.9307 44.9604 43.3273 46.3866 42.2645 47.4335C41.2017 48.4804 39.7665 49.0623 38.2747 49.0511L32.6499 49.0087C31.5127 49.0139 30.4123 48.6058 29.5534 47.8604L20.6718 39.5808C20.4655 39.3697 20.3505 39.086 20.3515 38.7908C20.353 38.5819 20.4128 38.3775 20.5239 38.2007C20.6351 38.0238 20.7933 37.8813 20.9809 37.7893C21.1685 37.6973 21.378 37.6593 21.5859 37.6796C21.7938 37.7 21.992 37.7778 22.1582 37.9044L28.2017 42.1125L28.3279 25.3505C28.3301 25.0521 28.4508 24.7669 28.6634 24.5575C28.8759 24.3481 29.163 24.2317 29.4613 24.234C29.7597 24.2362 30.0449 24.3569 30.2543 24.5695C30.4637 24.782 30.5801 25.0691 30.5778 25.3674L30.4846 37.7421L32.7346 37.759L32.76 34.3841C32.7622 34.0858 32.8829 33.8005 33.0955 33.5911C33.308 33.3817 33.5951 33.2654 33.8934 33.2676C34.1918 33.2699 34.477 33.3905 34.6864 33.6031C34.8958 33.8157 35.0122 34.1027 35.0099 34.4011L34.9845 37.776L37.2345 37.7929L37.2514 35.543C37.2536 35.2446 37.3743 34.9594 37.5869 34.75C37.7994 34.5406 38.0865 34.4242 38.3848 34.4265C38.6832 34.4287 38.9684 34.5494 39.1778 34.762C39.3872 34.9745 39.5036 35.2615 39.5013 35.5599L39.4844 37.8098L41.7343 37.8268L41.7428 36.7018C41.745 36.4035 41.8657 36.1182 42.0783 35.9088C42.2908 35.6994 42.5779 35.5831 42.8762 35.5853C43.1746 35.5876 43.4598 35.7082 43.6692 35.9208C43.8786 36.1334 43.995 36.4204 43.9927 36.7188L43.9419 43.4686Z" fill="white"/>
<path d="M12.8839 12.2714L9.88202 15.3875L32.6009 15.5439L32.5906 17.2917L9.87171 17.1353L12.8367 20.2866L11.5937 21.515L6.38135 16.2408L11.6555 11.0284L12.8839 12.2714Z" fill="white"/>
<rect x="35.5" y="6.5" width="39" height="20" rx="10" fill="#FFF1F1"/>
<path d="M48.9941 20.5H47.7246L44.6191 16.0078H44.5605V20.5H43.0957V13.4297H44.3848L47.4707 17.9219H47.5391V13.4297H48.9941V20.5ZM52.5391 20.6074C52.0117 20.6074 51.5511 20.4935 51.1572 20.2656C50.7666 20.0345 50.4655 19.7122 50.2539 19.2988C50.0456 18.8854 49.9414 18.4069 49.9414 17.8633C49.9414 17.3197 50.0456 16.8428 50.2539 16.4326C50.4655 16.0192 50.7666 15.6986 51.1572 15.4707C51.5511 15.2428 52.0117 15.1289 52.5391 15.1289C53.0664 15.1289 53.5254 15.2428 53.916 15.4707C54.3099 15.6986 54.6126 16.0192 54.8242 16.4326C55.0391 16.8428 55.1465 17.3197 55.1465 17.8633C55.1465 18.4069 55.0391 18.8854 54.8242 19.2988C54.6126 19.7122 54.3099 20.0345 53.916 20.2656C53.5254 20.4935 53.0664 20.6074 52.5391 20.6074ZM51.4062 17.8633C51.4062 18.179 51.4486 18.459 51.5332 18.7031C51.6211 18.944 51.7513 19.1344 51.9238 19.2744C52.0964 19.4144 52.3047 19.4844 52.5488 19.4844C52.7865 19.4844 52.9899 19.416 53.1592 19.2793C53.3285 19.1393 53.4554 18.9489 53.54 18.708C53.6279 18.4671 53.6719 18.1921 53.6719 17.8828C53.6719 17.5638 53.6296 17.2806 53.5449 17.0332C53.4603 16.7826 53.3333 16.5872 53.1641 16.4473C52.9948 16.304 52.7897 16.2324 52.5488 16.2324C52.3047 16.2324 52.0964 16.3024 51.9238 16.4424C51.7513 16.5824 51.6211 16.776 51.5332 17.0234C51.4486 17.2676 51.4062 17.5475 51.4062 17.8633ZM56.0547 15.1973H57.4805V16.0859H57.5391C57.6628 15.819 57.8451 15.5928 58.0859 15.4072C58.3268 15.2217 58.6491 15.1289 59.0527 15.1289C59.4531 15.1289 59.8161 15.2331 60.1416 15.4414C60.4671 15.6465 60.7243 15.9541 60.9131 16.3643C61.1051 16.7712 61.2012 17.2676 61.2012 17.8535C61.2012 18.4264 61.1084 18.9196 60.9229 19.333C60.7373 19.7432 60.4818 20.0557 60.1562 20.2705C59.8307 20.4821 59.4629 20.5879 59.0527 20.5879C58.6589 20.5879 58.3382 20.4984 58.0908 20.3193C57.8467 20.137 57.6628 19.9141 57.5391 19.6504H57.5V22.4922H56.0547V15.1973ZM57.4707 17.8291C57.4707 18.3174 57.5684 18.7064 57.7637 18.9961C57.9622 19.2858 58.2389 19.4323 58.5938 19.4355C58.9518 19.4323 59.2301 19.2874 59.4287 19.001C59.6273 18.7145 59.7266 18.3337 59.7266 17.8584C59.7266 17.3799 59.6289 16.9974 59.4336 16.7109C59.2383 16.4245 58.9583 16.2812 58.5938 16.2812C58.2389 16.2812 57.9622 16.4196 57.7637 16.6963C57.5684 16.973 57.4707 17.3506 57.4707 17.8291ZM64.541 20.6074C64.0039 20.6074 63.5384 20.4967 63.1445 20.2754C62.7507 20.0508 62.4479 19.7334 62.2363 19.3232C62.028 18.9131 61.9238 18.4297 61.9238 17.873C61.9238 17.3327 62.028 16.8558 62.2363 16.4424C62.4479 16.0257 62.7474 15.7035 63.1348 15.4756C63.5221 15.2445 63.9714 15.1289 64.4824 15.1289C64.9577 15.1289 65.3825 15.2298 65.7568 15.4316C66.1344 15.6302 66.4307 15.9313 66.6455 16.335C66.8636 16.7386 66.9727 17.2318 66.9727 17.8145V18.2246H63.3496C63.3496 18.4883 63.3984 18.7178 63.4961 18.9131C63.597 19.1084 63.7386 19.2598 63.9209 19.3672C64.1064 19.4714 64.3229 19.5234 64.5703 19.5234C64.8112 19.5202 65.0179 19.4714 65.1904 19.377C65.363 19.2793 65.485 19.1491 65.5566 18.9863H66.9336C66.8652 19.3151 66.7253 19.6016 66.5137 19.8457C66.3021 20.0866 66.027 20.2738 65.6885 20.4072C65.3532 20.5407 64.9707 20.6074 64.541 20.6074ZM65.6055 17.3164C65.6055 17.1048 65.5583 16.9144 65.4639 16.7451C65.3727 16.5758 65.2441 16.4456 65.0781 16.3545C64.9121 16.2601 64.7233 16.2129 64.5117 16.2129C64.2969 16.2129 64.1016 16.2617 63.9258 16.3594C63.7533 16.457 63.6165 16.5905 63.5156 16.7598C63.4147 16.929 63.3594 17.1146 63.3496 17.3164H65.6055Z" fill="#FC5555"/>
</svg>
