<svg width="50" height="50" viewBox="0 0 50 50" fill="none" xmlns="http://www.w3.org/2000/svg">
<path d="M35.7583 26.875C35.1771 26.8771 34.6067 27.0323 34.1046 27.325C33.8013 26.8439 33.3813 26.4473 32.8837 26.172C32.3861 25.8966 31.827 25.7515 31.2583 25.75C30.6771 25.7521 30.1067 25.9073 29.6046 26.2C29.1953 25.556 28.5798 25.0697 27.8586 24.8204C27.1374 24.5711 26.3529 24.5736 25.6333 24.8275V19C25.6333 18.1049 25.2778 17.2465 24.6448 16.6135C24.0119 15.9806 23.1534 15.625 22.2583 15.625C21.3632 15.625 20.5048 15.9806 19.8718 16.6135C19.2389 17.2465 18.8833 18.1049 18.8833 19V31.4875L16.3746 29.7775C15.7995 29.3492 15.1004 29.1201 14.3833 29.125C13.7139 29.1233 13.0592 29.3208 12.5023 29.6922C11.9454 30.0637 11.5115 30.5923 11.2559 31.211C11.0002 31.8296 10.9343 32.5103 11.0665 33.1666C11.1987 33.8228 11.5231 34.4249 11.9983 34.8962L20.9983 43.1087C22.2725 44.2492 23.9233 44.8783 25.6333 44.875H31.2583C33.3469 44.875 35.3499 44.0453 36.8268 42.5685C38.3036 41.0916 39.1333 39.0886 39.1333 37V30.25C39.1333 29.3549 38.7778 28.4964 38.1448 27.8635C37.5119 27.2306 36.6534 26.875 35.7583 26.875ZM36.8833 37C36.8833 38.4918 36.2907 39.9226 35.2358 40.9775C34.1809 42.0324 32.7502 42.625 31.2583 42.625H25.6333C24.4962 42.6387 23.3928 42.239 22.5283 41.5L13.5846 33.2875C13.3767 33.078 13.2596 32.7951 13.2583 32.5C13.2583 32.2911 13.3165 32.0863 13.4263 31.9086C13.5362 31.7308 13.6933 31.5872 13.8802 31.4938C14.0671 31.4003 14.2763 31.3608 14.4844 31.3795C14.6924 31.3983 14.8912 31.4746 15.0583 31.6L21.1333 35.7625V19C21.1333 18.7016 21.2519 18.4155 21.4628 18.2045C21.6738 17.9935 21.96 17.875 22.2583 17.875C22.5567 17.875 22.8428 17.9935 23.0538 18.2045C23.2648 18.4155 23.3833 18.7016 23.3833 19V31.375H25.6333V28C25.6333 27.7016 25.7519 27.4155 25.9628 27.2045C26.1738 26.9935 26.46 26.875 26.7583 26.875C27.0567 26.875 27.3428 26.9935 27.5538 27.2045C27.7648 27.4155 27.8833 27.7016 27.8833 28V31.375H30.1333V29.125C30.1333 28.8266 30.2519 28.5405 30.4628 28.3295C30.6738 28.1185 30.96 28 31.2583 28C31.5567 28 31.8428 28.1185 32.0538 28.3295C32.2648 28.5405 32.3833 28.8266 32.3833 29.125V31.375H34.6333V30.25C34.6333 29.9516 34.7519 29.6655 34.9628 29.4545C35.1738 29.2435 35.46 29.125 35.7583 29.125C36.0567 29.125 36.3428 29.2435 36.5538 29.4545C36.7648 29.6655 36.8833 29.9516 36.8833 30.25V37Z" fill="white"/>
<path fill-rule="evenodd" clip-rule="evenodd" d="M12.7504 10.5305C13.0097 10.0429 13.6152 9.85777 14.1029 10.1171L18.5176 12.4644C19.0052 12.7237 19.1904 13.3292 18.9311 13.8168C18.6718 14.3045 18.0663 14.4896 17.5787 14.2303L13.1639 11.8829C12.6763 11.6237 12.4912 11.0182 12.7504 10.5305Z" fill="white"/>
<path fill-rule="evenodd" clip-rule="evenodd" d="M22.6334 13C22.0811 13 21.6334 12.5523 21.6334 12V7C21.6334 6.44772 22.0811 6 22.6334 6C23.1856 6 23.6334 6.44772 23.6334 7V12C23.6334 12.5523 23.1856 13 22.6334 13Z" fill="white"/>
<path fill-rule="evenodd" clip-rule="evenodd" d="M26.2226 14.3853C25.8056 14.0233 25.761 13.3917 26.1231 12.9746L29.4011 9.19906C29.7632 8.78202 30.3948 8.73747 30.8118 9.09954C31.2288 9.46162 31.2734 10.0932 30.9113 10.5102L27.6333 14.2858C27.2713 14.7029 26.6397 14.7474 26.2226 14.3853Z" fill="white"/>
</svg>
