<svg width="20" height="20" viewBox="0 0 20 20" fill="none" xmlns="http://www.w3.org/2000/svg">
  <path
    d="M17.0644 7.5C16.842 7.5 16.622 7.54457 16.4172 7.63107C16.2123 7.71757 16.027 7.84425 15.8719 8.00363L15.6262 8.257L15.3781 8.00363C15.223 7.84426 15.0377 7.71758 14.8329 7.63108C14.628 7.54458 14.408 7.50001 14.1857 7.50001C13.9633 7.50001 13.7433 7.54458 13.5385 7.63108C13.3337 7.71758 13.1483 7.84426 12.9932 8.00363C12.6769 8.33001 12.5 8.76671 12.5 9.22125C12.5 9.67579 12.6769 10.1125 12.9932 10.4389L15.6262 13.125L18.2568 10.4389C18.5731 10.1125 18.75 9.67579 18.75 9.22125C18.75 8.76671 18.5731 8.33001 18.2568 8.00363C18.1017 7.84426 17.9164 7.71758 17.7116 7.63108C17.5068 7.54458 17.2867 7.50001 17.0644 7.5Z"
    fill="#161616" />
  <path
    d="M1.25 18.75H2.5V15.625C2.50098 14.7965 2.83053 14.0022 3.41637 13.4164C4.00221 12.8305 4.7965 12.501 5.625 12.5H9.375C10.2035 12.501 10.9978 12.8305 11.5836 13.4164C12.1695 14.0022 12.499 14.7965 12.5 15.625V18.75H13.75V15.625C13.7486 14.4651 13.2873 13.3531 12.4671 12.5329C11.6469 11.7127 10.5349 11.2514 9.375 11.25H5.625C4.46509 11.2514 3.35308 11.7127 2.53291 12.5329C1.71273 13.3531 1.25136 14.4651 1.25 15.625V18.75Z"
    fill="#161616" />
  <path
    d="M7.5 2.5C8.11807 2.5 8.72225 2.68328 9.23616 3.02666C9.75006 3.37004 10.1506 3.8581 10.3871 4.42911C10.6236 5.00013 10.6855 5.62847 10.565 6.23466C10.4444 6.84085 10.1467 7.39767 9.70971 7.83471C9.27267 8.27175 8.71585 8.56938 8.10966 8.68995C7.50347 8.81053 6.87513 8.74865 6.30411 8.51212C5.7331 8.2756 5.24504 7.87506 4.90166 7.36116C4.55828 6.84725 4.375 6.24307 4.375 5.625C4.375 4.7962 4.70424 4.00134 5.29029 3.41529C5.87634 2.82924 6.6712 2.5 7.5 2.5ZM7.5 1.25C6.63471 1.25 5.78885 1.50659 5.06938 1.98732C4.34992 2.46805 3.78916 3.15133 3.45803 3.95076C3.12689 4.75019 3.04025 5.62985 3.20906 6.47852C3.37787 7.32719 3.79455 8.10674 4.40641 8.71859C5.01826 9.33045 5.79781 9.74712 6.64648 9.91594C7.49515 10.0847 8.37481 9.99811 9.17424 9.66697C9.97367 9.33584 10.6569 8.77508 11.1377 8.05562C11.6184 7.33615 11.875 6.49029 11.875 5.625C11.875 4.46468 11.4141 3.35188 10.5936 2.53141C9.77312 1.71094 8.66032 1.25 7.5 1.25Z"
    fill="#161616" />
</svg>
  
